<?xml version="1.0" encoding="UTF-8"?>
<svg id="Layer_2" data-name="Layer 2" xmlns="http://www.w3.org/2000/svg" viewBox="0 0 244.17 82.17">
  <defs>
    <style>
      .cls-1 {
        fill: #04263a;
      }

      .cls-2 {
        fill: #f79421;
      }
    </style>
  </defs>
  <g id="Layer_1-2" data-name="Layer 1">
    <g>
      <g>
        <path class="cls-1" d="M50.84,31.47c-.22-2.25-.82-4.32-1.8-6.2s-2.36-3.46-4.13-4.73c-1.78-1.27-3.86-1.9-6.26-1.9s-4.34,.71-5.82,2.12c-1.49,1.41-2.56,3.23-3.21,5.44-.65,2.22-.87,4.68-.65,7.4,.22,2.72,.83,5.42,1.85,8.1,1.23,.66,2.76,1.25,4.57,1.8,1.81,.54,3.66,.82,5.55,.82,2.46,0,4.46-.63,5.98-1.9,1.52-1.27,2.61-2.85,3.26-4.74,.65-1.88,.87-3.95,.65-6.2Zm-7.28-7.28l.05,3.38-7.68,.2-.08-3.54,7.72-.05Zm-5.65,17.61c-.29-.62-.52-1.17-.86-1.89-1.01-2.14-3.39-6.32-2.82-7.75,.52-1.31,1.17-2.61,1.52-3.92l3.8-.08,.1,4.77-.6,.44c-1.28,1.05-.92,2.46,.68,2.93l.07,6.53c-1.36-.02-1.31,.23-1.88-1.02Zm4.96-1.88c-.86,2.05-.38,2.71-2.58,2.92l-.14-6.58c2.98-1.19,.18-3.44,.08-3.24-.02,.05-.11-.07-.15-.11l-.1-4.77,3.79-.07c1.69,6.29,3.65,.98-.91,11.85Z"/>
        <path class="cls-1" d="M38.51,66.12c.02,.19,.08,.37,.18,.53-8.14,11.61-19.62,9.14-19.62,9.14h0C7.6,68.51,0,55.69,0,41.1,0,18.4,18.4,0,41.1,0c10.56,0,20.19,3.98,27.47,10.53l-9.08,11.12c-.35-.38-.73-.75-1.14-1.11-1.6-1.41-3.55-2.57-5.87-3.48s-5.04-1.36-8.16-1.36c-4.35,0-8.1,.73-11.26,2.18-3.16,1.45-5.77,3.35-7.84,5.71-2.07,2.36-3.61,5.06-4.62,8.1-1.02,3.05-1.52,6.2-1.52,9.47,0,2.68,.45,5.51,1.36,8.49,.91,2.97,2.34,5.71,4.3,8.21,1.96,2.5,4.46,4.57,7.51,6.2,1.85,.99,3.95,1.68,6.28,2.06Z"/>
        <path class="cls-1" d="M82.2,41.1c0,22.17-17.55,40.24-39.52,41.07-.62-10.58,9.62-17.35,9.62-17.35,2.43-1.12,4.44-2.41,6.04-3.86,1.81-1.67,3.3-3.55,4.46-5.66l-.76-.76c-3.7,1.67-7.11,2.56-10.23,2.67-3.12,.11-5.93-.34-8.43-1.36-2.5-1.02-4.68-2.48-6.53-4.41-1.85-1.92-3.39-4.08-4.62-6.47,1.96,.94,4.08,1.63,6.36,2.07s4.57,.6,6.85,.49c2.28-.11,4.5-.54,6.64-1.31s4.03-1.85,5.66-3.26c1.63-1.42,2.94-3.17,3.92-5.28,.92-1.97,1.41-4.29,1.46-6.96l11.24-13.76c4.93,6.78,7.83,15.12,7.83,24.14Z"/>
      </g>
      <g>
        <g>
          <path class="cls-2" d="M98.92,20.91v3.09h7.95c.21,0,.32,.11,.32,.32v2.83c0,.22-.11,.33-.32,.33h-11.33c-.08,0-.16-.03-.23-.1-.07-.06-.1-.14-.1-.23V12.05c0-.09,.03-.17,.1-.23,.07-.06,.14-.1,.23-.1h11.27c.08,0,.16,.03,.23,.1,.07,.06,.1,.14,.1,.23v2.83c0,.09-.03,.17-.1,.23-.07,.06-.14,.1-.23,.1h-7.89v2.7h6.76c.22,0,.33,.11,.33,.33v2.36c0,.21-.11,.32-.33,.32h-6.76Z"/>
          <path class="cls-2" d="M124.51,27.07c.05,.09,.04,.18-.02,.27-.06,.09-.14,.13-.24,.13h-3.23c-.22,0-.37-.1-.46-.31l-1.02-2.36h-5.72l-1.02,2.36c-.07,.2-.22,.31-.46,.31h-3.22c-.11,0-.19-.04-.24-.13-.06-.09-.06-.18-.02-.27l6.95-15.07c.16-.35,.43-.53,.81-.53s.63,.17,.78,.51l7.11,15.1Zm-7.87-8.96l-1.56,3.68h3.13l-1.57-3.68Z"/>
          <path class="cls-2" d="M131.96,27.7c-1.5,0-2.92-.37-4.26-1.11-.82-.44-1.56-.99-2.21-1.64-.17-.17-.18-.35-.02-.53l1.55-1.88c.08-.09,.18-.14,.29-.16,.11-.01,.21,.02,.3,.09,.54,.43,1.09,.78,1.66,1.06,.91,.48,1.88,.74,2.92,.76,.57,0,1.01-.07,1.3-.2,.46-.18,.69-.51,.69-1,0-.32-.13-.57-.38-.73-.26-.16-.89-.43-1.89-.8l-1-.35c-1.8-.63-3.08-1.34-3.84-2.15-.74-.76-1.11-1.77-1.11-3.04,0-.69,.15-1.32,.46-1.89,.31-.58,.73-1.06,1.26-1.46,1.08-.8,2.43-1.2,4.05-1.2,1.45,0,2.76,.36,3.94,1.09,.65,.4,1.3,.97,1.94,1.7,.17,.2,.17,.39-.02,.58l-1.92,1.46c-.08,.08-.18,.11-.29,.11-.11,0-.21-.05-.29-.13-.74-.74-1.67-1.2-2.8-1.39-.63-.1-1.14-.06-1.55,.11-.47,.2-.71,.55-.71,1.04,0,.6,.35,1.04,1.04,1.35,.29,.13,.61,.24,.95,.33l.97,.27c1.9,.6,3.25,1.34,4.05,2.21,.69,.75,1.04,1.79,1.04,3.1,0,1.39-.57,2.48-1.71,3.27-1.09,.77-2.55,1.15-4.4,1.15Z"/>
          <path class="cls-2" d="M151.61,11.72c.21,0,.32,.11,.32,.33v2.83c0,.22-.11,.33-.32,.33h-4.29v11.94c0,.22-.11,.33-.33,.33h-3.05c-.22,0-.33-.11-.33-.33V15.2h-4.29c-.21,0-.32-.11-.32-.33v-2.83c0-.22,.11-.33,.32-.33h12.28Z"/>
          <path class="cls-2" d="M157.6,24h7.29c.22,0,.33,.11,.33,.32v2.83c0,.22-.11,.33-.33,.33h-10.68c-.08,0-.16-.03-.23-.1-.07-.06-.1-.14-.1-.23V12.05c0-.09,.03-.17,.1-.23,.07-.06,.14-.1,.23-.1h3.05c.22,0,.33,.11,.33,.33v11.95Z"/>
          <path class="cls-2" d="M182.51,27.07c.05,.09,.04,.18-.02,.27-.06,.09-.14,.13-.24,.13h-3.23c-.22,0-.37-.1-.46-.31l-1.02-2.36h-5.72l-1.02,2.36c-.07,.2-.22,.31-.46,.31h-3.22c-.11,0-.19-.04-.24-.13-.06-.09-.06-.18-.02-.27l6.95-15.07c.16-.35,.43-.53,.81-.53s.63,.17,.78,.51l7.11,15.1Zm-7.87-8.96l-1.56,3.68h3.13l-1.57-3.68Z"/>
          <path class="cls-2" d="M188.1,18.88v8.27c0,.22-.11,.33-.33,.33h-3.05c-.22,0-.33-.11-.33-.33V12.4c0-.26,.12-.46,.37-.6,.1-.05,.22-.06,.36-.05,.14,.02,.26,.07,.36,.16l9.37,8.43V12.05c0-.22,.11-.33,.33-.33h3.05c.22,0,.33,.11,.33,.33v14.78c0,.27-.12,.46-.37,.58-.25,.14-.49,.11-.71-.09l-9.39-8.44Z"/>
          <path class="cls-2" d="M206.49,11.72c2.68,0,4.81,.67,6.39,2.02,1.62,1.39,2.43,3.38,2.43,5.97s-.83,4.52-2.48,5.86c-1.53,1.27-3.68,1.9-6.46,1.9h-5.15c-.08,0-.16-.03-.23-.1-.07-.06-.1-.14-.1-.23V12.05c0-.09,.03-.17,.1-.23,.07-.06,.14-.1,.23-.1h5.26Zm-1.88,3.62v8.53h1.74c1.9,0,3.28-.46,4.14-1.37,.65-.69,.97-1.62,.97-2.8,0-1.25-.32-2.23-.95-2.94-.84-.94-2.2-1.41-4.09-1.41h-1.81Z"/>
          <path class="cls-2" d="M222.98,27.7c-1.5,0-2.92-.37-4.26-1.11-.82-.44-1.56-.99-2.21-1.64-.17-.17-.18-.35-.02-.53l1.55-1.88c.08-.09,.18-.14,.29-.16,.11-.01,.21,.02,.3,.09,.54,.43,1.09,.78,1.66,1.06,.91,.48,1.88,.74,2.92,.76,.57,0,1.01-.07,1.3-.2,.46-.18,.69-.51,.69-1,0-.32-.13-.57-.38-.73-.26-.16-.89-.43-1.89-.8l-.99-.35c-1.8-.63-3.08-1.34-3.84-2.15-.74-.76-1.11-1.77-1.11-3.04,0-.69,.15-1.32,.46-1.89,.31-.58,.73-1.06,1.26-1.46,1.08-.8,2.43-1.2,4.05-1.2,1.45,0,2.76,.36,3.94,1.09,.65,.4,1.3,.97,1.94,1.7,.17,.2,.17,.39-.02,.58l-1.92,1.46c-.08,.08-.18,.11-.29,.11-.11,0-.21-.05-.29-.13-.74-.74-1.67-1.2-2.8-1.39-.63-.1-1.14-.06-1.55,.11-.47,.2-.71,.55-.71,1.04,0,.6,.35,1.04,1.04,1.35,.29,.13,.61,.24,.95,.33l.97,.27c1.9,.6,3.25,1.34,4.05,2.21,.69,.75,1.04,1.79,1.04,3.1,0,1.39-.57,2.48-1.71,3.27-1.09,.77-2.55,1.15-4.4,1.15Z"/>
        </g>
        <g>
          <path class="cls-1" d="M101.38,59.75c.87,.93,1.31,2.04,1.31,3.34s-.43,2.46-1.3,3.36c-.87,.91-1.92,1.36-3.18,1.36h-2.81c-.13,0-.19-.06-.19-.19v-9.06c0-.13,.06-.19,.19-.19h2.81c1.24,0,2.3,.46,3.17,1.39Zm-.94,5.72c.59-.66,.88-1.46,.88-2.38s-.29-1.71-.88-2.38c-.59-.67-1.28-1-2.08-1h-1.78v6.75h1.78c.8,0,1.49-.33,2.08-.99Z"/>
          <path class="cls-1" d="M109.64,65.03h-4.68c.07,.44,.28,.83,.63,1.15,.34,.32,.73,.49,1.17,.49s.78-.06,1.05-.18c.27-.12,.55-.32,.83-.61,.07-.07,.15-.07,.22,0l.57,.57c.1,.1,.11,.2,.03,.29-.71,.81-1.61,1.21-2.7,1.21-.93,0-1.7-.35-2.31-1.04-.61-.7-.92-1.52-.92-2.46s.3-1.77,.9-2.47c.6-.7,1.35-1.05,2.26-1.05s1.63,.35,2.24,1.04,.92,1.56,.92,2.61c0,.31-.07,.46-.21,.46Zm-4.12-2.36c-.32,.33-.51,.72-.56,1.19h3.46c-.06-.45-.26-.85-.58-1.18-.32-.33-.7-.5-1.15-.5s-.85,.16-1.17,.49Z"/>
          <path class="cls-1" d="M111.02,67.61v-9.48c0-.13,.06-.19,.19-.19h.96c.13,0,.19,.06,.19,.19v9.48c0,.13-.06,.19-.19,.19h-.96c-.13,0-.19-.06-.19-.19Z"/>
          <path class="cls-1" d="M114.13,59.34c-.16-.16-.24-.35-.24-.58s.08-.41,.24-.57c.16-.16,.35-.24,.57-.24s.43,.08,.58,.24c.16,.16,.24,.35,.24,.57s-.08,.41-.24,.58c-.16,.16-.35,.24-.58,.24s-.41-.08-.57-.24Zm1.25,1.9v6.38c0,.13-.06,.19-.19,.19h-.96c-.13,0-.19-.06-.19-.19v-6.38c0-.13,.06-.19,.19-.19h.96c.13,0,.19,.06,.19,.19Z"/>
          <path class="cls-1" d="M116.61,61.12c.04-.05,.09-.08,.15-.08h1.03c.12,0,.2,.07,.24,.21l1.49,4.66,1.51-4.71c.04-.1,.11-.15,.21-.15h1.03c.06,0,.11,.03,.15,.08,.03,.05,.04,.11,.02,.17l-2.21,6.38c-.05,.09-.11,.14-.19,.14h-1.01c-.1,0-.17-.05-.19-.14l-2.24-6.38c-.02-.06,0-.12,.03-.17Z"/>
          <path class="cls-1" d="M128.97,65.03h-4.68c.07,.44,.28,.83,.63,1.15,.34,.32,.73,.49,1.17,.49s.78-.06,1.05-.18c.27-.12,.55-.32,.83-.61,.07-.07,.15-.07,.22,0l.57,.57c.1,.1,.11,.2,.03,.29-.71,.81-1.61,1.21-2.7,1.21-.93,0-1.7-.35-2.31-1.04-.61-.7-.92-1.52-.92-2.46s.3-1.77,.9-2.47c.6-.7,1.35-1.05,2.26-1.05s1.63,.35,2.24,1.04,.92,1.56,.92,2.61c0,.31-.07,.46-.21,.46Zm-4.12-2.36c-.32,.33-.51,.72-.56,1.19h3.46c-.06-.45-.26-.85-.58-1.18-.32-.33-.7-.5-1.15-.5s-.85,.16-1.17,.49Z"/>
          <path class="cls-1" d="M134.17,61.22l-.08,.93c0,.13-.09,.18-.24,.15-.74-.15-1.28,.03-1.62,.54s-.51,1.22-.51,2.15v2.63c0,.13-.06,.19-.19,.19h-.97c-.13,0-.19-.06-.19-.19v-6.38c0-.13,.06-.19,.19-.19h.94c.15,0,.22,.06,.22,.19v.83c.42-.75,1.06-1.13,1.92-1.13,.12,0,.25,.02,.38,.06,.12,.04,.17,.11,.15,.22Z"/>
          <path class="cls-1" d="M135.46,59.34c-.16-.16-.24-.35-.24-.58s.08-.41,.24-.57c.16-.16,.35-.24,.57-.24s.43,.08,.58,.24c.16,.16,.24,.35,.24,.57s-.08,.41-.24,.58c-.16,.16-.35,.24-.58,.24s-.41-.08-.57-.24Zm1.25,1.9v6.38c0,.13-.06,.19-.19,.19h-.96c-.13,0-.19-.06-.19-.19v-6.38c0-.13,.06-.19,.19-.19h.96c.13,0,.19,.06,.19,.19Z"/>
          <path class="cls-1" d="M143.54,61.94c.39,.68,.59,1.68,.59,3.02v2.65c0,.13-.06,.19-.19,.19h-.95c-.13,0-.19-.06-.19-.19v-3.03c0-.8-.11-1.39-.33-1.77s-.61-.58-1.19-.58c-1.06,0-1.62,.77-1.7,2.32v3.06c0,.13-.06,.19-.19,.19h-.96c-.13,0-.19-.06-.19-.19v-6.38c0-.13,.06-.19,.19-.19h.94c.14,0,.21,.06,.21,.19v.72c.44-.69,1.03-1.03,1.79-1.03,1.05,0,1.77,.34,2.16,1.01Z"/>
          <path class="cls-1" d="M151.24,61.25v5.07c0,1.34-.27,2.41-.81,3.2-.54,.79-1.33,1.18-2.39,1.18-.66,0-1.23-.11-1.72-.33-.49-.22-.85-.44-1.08-.67-.07-.07-.08-.16-.01-.25l.53-.69c.07-.09,.15-.11,.22-.04,.55,.45,1.2,.68,1.97,.68,.61,0,1.06-.22,1.34-.65,.28-.43,.47-1.04,.56-1.83-.2,.28-.48,.5-.82,.67s-.69,.26-1.06,.26c-.92,0-1.66-.33-2.24-.99-.57-.66-.86-1.48-.86-2.47s.29-1.82,.87-2.47,1.32-.99,2.23-.99c.37,0,.73,.1,1.08,.28,.35,.19,.62,.44,.83,.74v-.71c0-.14,.07-.21,.22-.21h.93c.13,0,.19,.07,.19,.21Zm-1.83,4.65c.34-.41,.51-.92,.51-1.51s-.17-1.09-.51-1.5-.76-.61-1.27-.61-.94,.2-1.29,.61c-.35,.41-.52,.91-.52,1.5s.17,1.1,.52,1.51c.35,.41,.78,.62,1.29,.62s.92-.21,1.26-.62Z"/>
          <path class="cls-1" d="M164.99,67.17l-.71,.7c-.09,.09-.18,.09-.26,0l-.9-.9c-.79,.65-1.66,.97-2.63,.97-1.21,0-2.25-.48-3.1-1.45-.85-.96-1.28-2.09-1.28-3.39s.42-2.39,1.26-3.37c.84-.98,1.88-1.47,3.12-1.47s2.26,.48,3.11,1.45c.85,.96,1.28,2.09,1.28,3.39,0,1.06-.28,2-.85,2.84l.96,.96c.08,.08,.08,.18,0,.28Zm-2.37-1.63c.59-.67,.88-1.49,.88-2.44s-.29-1.77-.88-2.45c-.59-.68-1.3-1.01-2.13-1.01s-1.53,.34-2.12,1.01c-.59,.68-.88,1.49-.88,2.45s.29,1.76,.88,2.43c.59,.68,1.29,1.01,2.12,1.01s1.55-.34,2.13-1.01Z"/>
          <path class="cls-1" d="M171.93,61.23v6.38c0,.13-.06,.19-.19,.19h-.95c-.14,0-.21-.06-.21-.19v-.69c-.19,.3-.45,.54-.76,.72-.31,.19-.65,.28-1.01,.28-.53,0-.98-.09-1.34-.28-.37-.19-.65-.46-.85-.83-.2-.37-.34-.78-.42-1.25-.08-.47-.12-1.03-.12-1.67v-2.65c0-.13,.06-.19,.19-.19h.97c.13,0,.19,.06,.19,.19v3.03c0,.79,.11,1.38,.33,1.77,.22,.39,.6,.58,1.15,.58,1.01,0,1.57-.72,1.67-2.17v-3.21c0-.13,.06-.19,.19-.19h.96c.13,0,.19,.06,.19,.19Z"/>
          <path class="cls-1" d="M177.88,61.87c.44,.63,.66,1.39,.66,2.3v3.45c0,.13-.06,.19-.19,.19h-.96c-.13,0-.19-.06-.19-.19v-.58c-.51,.59-1.11,.89-1.81,.89-.63,0-1.18-.19-1.65-.56s-.7-.89-.7-1.56c0-.77,.26-1.35,.77-1.74,.51-.39,1.13-.58,1.86-.58,.54,0,1.04,.09,1.52,.26-.04-.53-.19-.92-.46-1.17-.27-.25-.62-.38-1.04-.38-.39,0-.84,.2-1.36,.6-.08,.06-.16,.06-.24-.01l-.57-.61c-.07-.09-.07-.18,.01-.26,.24-.24,.56-.47,.97-.67s.84-.31,1.3-.31c.95,0,1.65,.31,2.09,.94Zm-2.49,2.82c-.2,.04-.41,.16-.63,.35-.22,.19-.33,.44-.33,.74,0,.2,.05,.38,.15,.51,.1,.14,.22,.23,.36,.28,.14,.05,.26,.09,.35,.1,.09,.02,.16,.03,.23,.03,.53,0,.94-.16,1.25-.48s.46-.78,.46-1.37c-.44-.16-.86-.24-1.25-.24-.19,0-.38,.02-.58,.06Z"/>
          <path class="cls-1" d="M180.07,67.61v-9.48c0-.13,.06-.19,.19-.19h.96c.13,0,.19,.06,.19,.19v9.48c0,.13-.06,.19-.19,.19h-.96c-.13,0-.19-.06-.19-.19Z"/>
          <path class="cls-1" d="M183.18,59.34c-.16-.16-.24-.35-.24-.58s.08-.41,.24-.57,.35-.24,.57-.24,.43,.08,.58,.24c.16,.16,.24,.35,.24,.57s-.08,.41-.24,.58c-.16,.16-.35,.24-.58,.24s-.41-.08-.57-.24Zm1.25,1.9v6.38c0,.13-.06,.19-.19,.19h-.96c-.13,0-.19-.06-.19-.19v-6.38c0-.13,.06-.19,.19-.19h.96c.13,0,.19,.06,.19,.19Z"/>
          <path class="cls-1" d="M189.73,67.81c-.24,.1-.54,.15-.9,.15-.65,0-1.19-.24-1.63-.71-.44-.47-.65-1.11-.65-1.9v-3.06h-.74c-.13,0-.19-.06-.19-.19v-.86c0-.13,.06-.19,.19-.19h.74v-2s.02-.09,.06-.13,.08-.06,.14-.06h.97c.06,0,.1,.02,.14,.06s.06,.09,.06,.13v2h1.49c.13,0,.19,.06,.19,.19v.86c0,.13-.06,.19-.19,.19h-1.49v3.06c0,.47,.13,.82,.38,1.04,.25,.22,.61,.27,1.07,.16,.09-.02,.17,.03,.22,.14l.26,.83c.06,.14,.02,.24-.11,.29Z"/>
          <path class="cls-1" d="M196.3,61.22s-.88,2.6-2.6,7.67c-.19,.57-.45,1.02-.76,1.33-.31,.31-.73,.47-1.27,.47-.38,0-.65-.04-.81-.13-.1-.06-.13-.14-.08-.25l.33-.83c.03-.07,.09-.11,.19-.11,.04,0,.09,0,.15,.02,.06,.01,.11,.02,.14,.02,.24,0,.42-.06,.55-.19,.12-.13,.25-.33,.37-.61l.26-.82-2.35-6.53s-.01-.09,.01-.14c.03-.05,.07-.07,.13-.07h1.06c.1,0,.18,.05,.22,.15l1.53,4.68,1.49-4.68c.06-.1,.13-.15,.22-.15h1.06c.13,0,.18,.06,.15,.18Z"/>
          <path class="cls-1" d="M207.13,59.75c.87,.93,1.31,2.04,1.31,3.34s-.43,2.46-1.3,3.36c-.87,.91-1.92,1.36-3.18,1.36h-2.81c-.13,0-.19-.06-.19-.19v-9.06c0-.13,.06-.19,.19-.19h2.81c1.24,0,2.3,.46,3.17,1.39Zm-.94,5.72c.59-.66,.88-1.46,.88-2.38s-.29-1.71-.88-2.38c-.59-.67-1.28-1-2.08-1h-1.78v6.75h1.78c.8,0,1.49-.33,2.08-.99Z"/>
          <path class="cls-1" d="M215.39,65.03h-4.68c.07,.44,.28,.83,.63,1.15,.34,.32,.73,.49,1.17,.49s.78-.06,1.05-.18c.27-.12,.55-.32,.83-.61,.07-.07,.15-.07,.22,0l.57,.57c.1,.1,.11,.2,.03,.29-.71,.81-1.61,1.21-2.7,1.21-.93,0-1.7-.35-2.31-1.04-.61-.7-.92-1.52-.92-2.46s.3-1.77,.9-2.47c.6-.7,1.35-1.05,2.26-1.05s1.63,.35,2.24,1.04,.92,1.56,.92,2.61c0,.31-.07,.46-.21,.46Zm-4.12-2.36c-.32,.33-.51,.72-.56,1.19h3.46c-.06-.45-.26-.85-.58-1.18-.32-.33-.7-.5-1.15-.5s-.85,.16-1.17,.49Z"/>
          <path class="cls-1" d="M216.3,67.11c-.1-.07-.12-.17-.06-.29l.44-.71c.06-.11,.15-.14,.25-.08,.02,0,.07,.04,.17,.1,.09,.06,.16,.09,.19,.11l.19,.1c.09,.05,.17,.08,.22,.1s.13,.05,.23,.08,.19,.06,.26,.07c.08,.01,.17,.03,.26,.04,.1,.01,.2,.02,.3,.02,.29,0,.52-.06,.7-.17,.18-.11,.27-.26,.27-.44,0-.23-.09-.41-.26-.53-.18-.13-.51-.28-.99-.45-.57-.19-1.03-.49-1.4-.88-.37-.39-.55-.83-.55-1.31,0-.56,.19-1.02,.58-1.38s.91-.55,1.57-.55c.54,0,1,.1,1.38,.28,.38,.19,.66,.38,.83,.58,.09,.09,.09,.19-.01,.28l-.53,.65c-.07,.07-.16,.08-.26,.03-.04-.03-.11-.08-.21-.15s-.18-.12-.23-.15c-.05-.03-.13-.07-.22-.12-.1-.05-.2-.08-.32-.1-.12-.02-.24-.03-.38-.03-.18,0-.36,.06-.55,.17-.19,.12-.28,.29-.28,.51,0,.19,.09,.36,.26,.49,.18,.13,.44,.28,.79,.42,.4,.17,.69,.3,.88,.39,.19,.09,.4,.23,.63,.4s.39,.38,.49,.6c.09,.23,.14,.5,.14,.81,0,.63-.24,1.11-.73,1.43-.49,.32-1.06,.49-1.72,.49-.86,0-1.65-.28-2.36-.82Z"/>
          <path class="cls-1" d="M222.32,59.34c-.16-.16-.24-.35-.24-.58s.08-.41,.24-.57,.35-.24,.57-.24,.43,.08,.58,.24c.16,.16,.24,.35,.24,.57s-.08,.41-.24,.58c-.16,.16-.35,.24-.58,.24s-.41-.08-.57-.24Zm1.25,1.9v6.38c0,.13-.06,.19-.19,.19h-.96c-.13,0-.19-.06-.19-.19v-6.38c0-.13,.06-.19,.19-.19h.96c.13,0,.19,.06,.19,.19Z"/>
          <path class="cls-1" d="M231.17,61.25v5.07c0,1.34-.27,2.41-.81,3.2-.54,.79-1.33,1.18-2.39,1.18-.66,0-1.23-.11-1.72-.33s-.85-.44-1.08-.67c-.07-.07-.08-.16-.01-.25l.53-.69c.07-.09,.15-.11,.22-.04,.55,.45,1.2,.68,1.97,.68,.61,0,1.06-.22,1.34-.65,.28-.43,.47-1.04,.56-1.83-.2,.28-.48,.5-.82,.67s-.7,.26-1.06,.26c-.92,0-1.66-.33-2.24-.99-.57-.66-.86-1.48-.86-2.47s.29-1.82,.87-2.47,1.32-.99,2.23-.99c.37,0,.73,.1,1.08,.28,.35,.19,.62,.44,.83,.74v-.71c0-.14,.07-.21,.22-.21h.93c.13,0,.19,.07,.19,.21Zm-1.83,4.65c.34-.41,.51-.92,.51-1.51s-.17-1.09-.51-1.5c-.34-.41-.76-.61-1.27-.61s-.94,.2-1.29,.61-.52,.91-.52,1.5,.17,1.1,.52,1.51,.78,.62,1.29,.62,.92-.21,1.26-.62Z"/>
          <path class="cls-1" d="M237.86,61.94c.39,.68,.59,1.68,.59,3.02v2.65c0,.13-.06,.19-.19,.19h-.95c-.13,0-.19-.06-.19-.19v-3.03c0-.8-.11-1.39-.33-1.77s-.61-.58-1.19-.58c-1.06,0-1.62,.77-1.7,2.32v3.06c0,.13-.06,.19-.19,.19h-.96c-.13,0-.19-.06-.19-.19v-6.38c0-.13,.06-.19,.19-.19h.95c.14,0,.21,.06,.21,.19v.72c.44-.69,1.03-1.03,1.79-1.03,1.05,0,1.77,.34,2.16,1.01Z"/>
          <path class="cls-1" d="M239.36,67.11c-.1-.07-.12-.17-.06-.29l.44-.71c.06-.11,.15-.14,.25-.08,.02,0,.07,.04,.17,.1,.09,.06,.16,.09,.19,.11l.19,.1c.09,.05,.17,.08,.22,.1s.13,.05,.23,.08,.19,.06,.26,.07c.08,.01,.17,.03,.26,.04,.1,.01,.2,.02,.3,.02,.29,0,.52-.06,.7-.17,.18-.11,.27-.26,.27-.44,0-.23-.09-.41-.26-.53-.18-.13-.51-.28-.99-.45-.57-.19-1.03-.49-1.4-.88-.37-.39-.55-.83-.55-1.31,0-.56,.19-1.02,.58-1.38s.91-.55,1.57-.55c.54,0,1,.1,1.38,.28,.38,.19,.66,.38,.83,.58,.09,.09,.09,.19-.01,.28l-.53,.65c-.07,.07-.16,.08-.26,.03-.04-.03-.11-.08-.21-.15s-.18-.12-.23-.15c-.05-.03-.13-.07-.22-.12-.1-.05-.2-.08-.32-.1-.12-.02-.24-.03-.38-.03-.18,0-.36,.06-.55,.17-.19,.12-.28,.29-.28,.51,0,.19,.09,.36,.26,.49,.18,.13,.44,.28,.79,.42,.4,.17,.69,.3,.88,.39,.19,.09,.4,.23,.63,.4s.39,.38,.49,.6c.09,.23,.14,.5,.14,.81,0,.63-.24,1.11-.73,1.43-.49,.32-1.06,.49-1.72,.49-.86,0-1.65-.28-2.36-.82Z"/>
        </g>
        <g>
          <path class="cls-2" d="M101.79,33.25c1.6,0,2.86,.35,3.8,1.05,1.03,.81,1.55,1.91,1.55,3.3,0,1.19-.41,2.14-1.22,2.85,1.79,.68,2.68,2.04,2.68,4.08,0,1.52-.54,2.66-1.62,3.43-.94,.69-2.22,1.04-3.82,1.04h-7.67c-.19,0-.28-.09-.28-.28v-15.14c0-.22,.11-.33,.33-.33h6.25Zm1.79,4.7c0-.63-.25-1.07-.75-1.32-.37-.18-.89-.27-1.57-.27h-2.39v3.17h2.32c.88,0,1.53-.17,1.95-.51,.29-.23,.44-.59,.44-1.06Zm-4.7,4.35v3.34h3.2c.68,0,1.24-.11,1.68-.33,.48-.25,.72-.68,.72-1.29,0-1.15-.79-1.72-2.36-1.72h-3.25Z"/>
          <path class="cls-2" d="M123.82,48.63c.05,.08,.06,.17,.01,.25-.05,.08-.11,.12-.2,.12h-3.4c-.17,0-.31-.08-.42-.23l-2.96-4.41h-2.48v4.31c0,.22-.11,.33-.33,.33h-3.05c-.22,0-.33-.11-.33-.33v-15.1c0-.22,.11-.33,.33-.33h7.49c1.64,0,2.95,.49,3.91,1.48,.97,1,1.46,2.38,1.46,4.15,0,1.31-.28,2.4-.83,3.26-.55,.86-1.33,1.48-2.33,1.84l3.13,4.65Zm-9.45-12.02v4.33h3.66c.8,0,1.39-.24,1.78-.74,.28-.35,.42-.83,.42-1.41,0-1.45-.72-2.18-2.15-2.18h-3.71Z"/>
          <path class="cls-2" d="M141.11,48.6c.04,.09,.04,.18-.02,.27-.06,.09-.14,.13-.24,.13h-3.23c-.22,0-.37-.1-.46-.31l-1.02-2.36h-5.72l-1.02,2.36c-.07,.2-.22,.31-.46,.31h-3.22c-.11,0-.19-.04-.24-.13-.06-.09-.06-.18-.02-.27l6.95-15.07c.16-.35,.43-.53,.81-.53s.63,.17,.78,.51l7.11,15.1Zm-7.87-8.96l-1.56,3.68h3.13l-1.57-3.68Z"/>
          <path class="cls-2" d="M146.7,40.4v8.27c0,.22-.11,.33-.33,.33h-3.05c-.22,0-.33-.11-.33-.33v-14.75c0-.26,.12-.46,.37-.6,.1-.05,.22-.06,.36-.05,.14,.02,.26,.07,.36,.16l9.37,8.43v-8.29c0-.22,.11-.33,.33-.33h3.05c.22,0,.33,.11,.33,.33v14.78c0,.27-.12,.46-.37,.58-.25,.14-.49,.11-.71-.09l-9.39-8.44Z"/>
          <path class="cls-2" d="M165.09,33.25c2.68,0,4.81,.67,6.39,2.02,1.62,1.39,2.43,3.38,2.43,5.97s-.83,4.52-2.48,5.86c-1.53,1.27-3.68,1.9-6.46,1.9h-5.15c-.08,0-.16-.03-.23-.1-.07-.06-.1-.14-.1-.23v-15.1c0-.09,.03-.17,.1-.23,.07-.06,.14-.1,.23-.1h5.26Zm-1.88,3.62v8.53h1.74c1.9,0,3.28-.46,4.14-1.37,.65-.69,.97-1.62,.97-2.8,0-1.25-.32-2.23-.95-2.94-.84-.94-2.2-1.41-4.09-1.41h-1.81Z"/>
          <path class="cls-2" d="M181.58,49.22c-1.5,0-2.92-.37-4.26-1.11-.82-.44-1.56-.99-2.21-1.64-.17-.17-.18-.35-.02-.53l1.55-1.88c.08-.09,.18-.14,.29-.16,.11-.01,.21,.02,.3,.09,.54,.43,1.09,.78,1.66,1.06,.91,.48,1.88,.74,2.92,.76,.57,0,1.01-.07,1.3-.2,.46-.18,.69-.51,.69-1,0-.32-.13-.57-.38-.73-.26-.16-.89-.43-1.89-.8l-.99-.35c-1.8-.63-3.08-1.34-3.84-2.15-.74-.76-1.11-1.77-1.11-3.04,0-.69,.15-1.32,.46-1.89,.31-.58,.73-1.06,1.26-1.46,1.08-.8,2.43-1.2,4.05-1.2,1.45,0,2.76,.36,3.93,1.09,.65,.4,1.3,.97,1.95,1.7,.17,.2,.17,.39-.02,.58l-1.92,1.46c-.08,.08-.18,.11-.29,.11-.11,0-.21-.05-.29-.13-.74-.74-1.67-1.2-2.8-1.39-.63-.1-1.14-.06-1.55,.11-.47,.2-.71,.55-.71,1.04,0,.6,.35,1.04,1.04,1.35,.29,.13,.61,.24,.95,.33l.97,.27c1.9,.6,3.25,1.34,4.05,2.21,.69,.75,1.04,1.79,1.04,3.1,0,1.39-.57,2.48-1.71,3.27-1.09,.77-2.55,1.15-4.4,1.15Z"/>
        </g>
      </g>
    </g>
  </g>
</svg>